<svg width="300" height="115" viewBox="0 0 300 115" fill="none" xmlns="http://www.w3.org/2000/svg">
<path d="M0 19C0 8.50659 8.50659 0 19 0H281C291.493 0 300 8.50659 300 19V96C300 106.493 291.493 115 281 115H19C8.50659 115 0 106.493 0 96V19Z" fill="#863687"/>
<path d="M72.6165 29.664H51.8805V84H36.1365V29.664H15.3045V15.84H72.6165V29.664Z" fill="url(#paint0_linear_586_81)"/>
<path d="M92.325 84.96C88.037 84.96 84.197 84.256 80.805 82.848C77.477 81.44 74.661 79.52 72.357 77.088C70.053 74.656 68.293 71.872 67.077 68.736C65.925 65.6 65.349 62.304 65.349 58.848C65.349 55.328 65.925 52 67.077 48.864C68.293 45.728 70.053 42.944 72.357 40.512C74.661 38.08 77.477 36.16 80.805 34.752C84.197 33.344 88.037 32.64 92.325 32.64C96.613 32.64 100.421 33.344 103.749 34.752C107.077 36.16 109.893 38.08 112.197 40.512C114.501 42.944 116.261 45.728 117.477 48.864C118.693 52 119.301 55.328 119.301 58.848C119.301 62.304 118.693 65.6 117.477 68.736C116.261 71.872 114.501 74.656 112.197 77.088C109.893 79.52 107.077 81.44 103.749 82.848C100.421 84.256 96.613 84.96 92.325 84.96ZM81.093 58.848C81.093 61.472 81.573 63.776 82.533 65.76C83.557 67.744 84.901 69.28 86.565 70.368C88.229 71.456 90.149 72 92.325 72C94.437 72 96.325 71.456 97.989 70.368C99.717 69.216 101.061 67.648 102.021 65.664C102.981 63.68 103.461 61.408 103.461 58.848C103.461 56.224 102.981 53.92 102.021 51.936C101.061 49.952 99.717 48.416 97.989 47.328C96.325 46.24 94.437 45.696 92.325 45.696C90.149 45.696 88.229 46.24 86.565 47.328C84.901 48.416 83.557 49.952 82.533 51.936C81.573 53.92 81.093 56.224 81.093 58.848Z" fill="url(#paint1_linear_586_81)"/>
<path d="M122.119 58.752C122.119 53.824 123.079 49.408 124.999 45.504C126.919 41.536 129.543 38.4 132.871 36.096C136.199 33.792 140.039 32.64 144.391 32.64C147.911 32.64 151.111 33.504 153.991 35.232C156.871 36.896 159.047 39.104 160.519 41.856V13.92H175.879V66.912C175.879 68.448 176.135 69.536 176.647 70.176C177.159 70.752 177.991 71.104 179.143 71.232V84C176.455 84.512 174.279 84.768 172.615 84.768C169.991 84.768 167.847 84.192 166.183 83.04C164.583 81.888 163.591 80.288 163.207 78.24L162.919 75.648C161.127 78.784 158.695 81.12 155.623 82.656C152.551 84.192 149.319 84.96 145.927 84.96C142.471 84.96 139.271 84.32 136.327 83.04C133.447 81.696 130.919 79.84 128.743 77.472C126.631 75.104 124.999 72.32 123.847 69.12C122.695 65.92 122.119 62.464 122.119 58.752ZM160.615 64.992V54.432C159.975 52.704 159.047 51.2 157.831 49.92C156.679 48.64 155.335 47.616 153.799 46.848C152.327 46.08 150.823 45.696 149.287 45.696C147.623 45.696 146.087 46.048 144.679 46.752C143.335 47.456 142.151 48.448 141.127 49.728C140.103 50.944 139.303 52.352 138.727 53.952C138.215 55.552 137.959 57.248 137.959 59.04C137.959 60.896 138.247 62.624 138.823 64.224C139.463 65.76 140.327 67.136 141.415 68.352C142.503 69.504 143.783 70.4 145.255 71.04C146.727 71.68 148.327 72 150.055 72C151.143 72 152.199 71.84 153.223 71.52C154.247 71.136 155.207 70.656 156.103 70.08C157.063 69.504 157.927 68.768 158.695 67.872C159.463 66.976 160.103 66.016 160.615 64.992Z" fill="url(#paint2_linear_586_81)"/>
<path d="M182.723 68.928C182.723 65.6 183.651 62.688 185.507 60.192C187.363 57.696 189.923 55.744 193.187 54.336C196.451 52.864 200.195 52.128 204.419 52.128C206.467 52.128 208.483 52.32 210.467 52.704C212.451 53.024 214.179 53.504 215.651 54.144V51.936C215.651 49.184 214.819 47.072 213.155 45.6C211.491 44.128 208.963 43.392 205.571 43.392C202.755 43.392 200.099 43.872 197.603 44.832C195.171 45.792 192.579 47.168 189.827 48.96L185.219 39.168C188.547 36.992 192.003 35.36 195.587 34.272C199.235 33.184 203.075 32.64 207.107 32.64C214.659 32.64 220.515 34.464 224.675 38.112C228.899 41.696 231.011 46.912 231.011 53.76V66.912C231.011 68.448 231.235 69.536 231.683 70.176C232.195 70.752 233.059 71.104 234.275 71.232V84C232.995 84.256 231.779 84.448 230.627 84.576C229.539 84.704 228.579 84.768 227.747 84.768C224.867 84.768 222.659 84.192 221.123 83.04C219.651 81.888 218.723 80.32 218.339 78.336L218.051 76.128C215.811 79.008 213.123 81.216 209.987 82.752C206.915 84.224 203.683 84.96 200.291 84.96C196.963 84.96 193.955 84.256 191.267 82.848C188.643 81.44 186.563 79.52 185.027 77.088C183.491 74.656 182.723 71.936 182.723 68.928ZM213.251 70.848C213.955 70.272 214.531 69.632 214.979 68.928C215.427 68.224 215.651 67.552 215.651 66.912V62.4C214.371 61.888 212.931 61.504 211.331 61.248C209.795 60.928 208.355 60.768 207.011 60.768C204.195 60.768 201.859 61.408 200.003 62.688C198.147 63.904 197.219 65.536 197.219 67.584C197.219 68.736 197.539 69.792 198.179 70.752C198.819 71.712 199.683 72.48 200.771 73.056C201.923 73.632 203.267 73.92 204.803 73.92C206.339 73.92 207.875 73.632 209.411 73.056C210.947 72.48 212.227 71.744 213.251 70.848Z" fill="url(#paint3_linear_586_81)"/>
<path d="M238.543 91.584C239.823 91.968 241.007 92.256 242.095 92.448C243.247 92.704 244.271 92.832 245.167 92.832C246.383 92.832 247.407 92.544 248.239 91.968C249.135 91.456 249.903 90.528 250.543 89.184C251.183 87.904 251.759 86.176 252.271 84L233.071 33.6H248.911L260.623 68.256L270.607 33.6H285.103L265.903 92.16C265.007 94.912 263.631 97.344 261.775 99.456C259.919 101.568 257.679 103.2 255.055 104.352C252.431 105.568 249.551 106.176 246.415 106.176C245.071 106.176 243.759 106.048 242.479 105.792C241.199 105.6 239.887 105.248 238.543 104.736V91.584Z" fill="url(#paint4_linear_586_81)"/>
<defs>
<linearGradient id="paint0_linear_586_81" x1="-9" y1="50.5" x2="309" y2="50.5" gradientUnits="userSpaceOnUse">
<stop stop-color="white"/>
<stop offset="1" stop-color="#EFE9FC"/>
</linearGradient>
<linearGradient id="paint1_linear_586_81" x1="-9" y1="50.5" x2="309" y2="50.5" gradientUnits="userSpaceOnUse">
<stop stop-color="white"/>
<stop offset="1" stop-color="#EFE9FC"/>
</linearGradient>
<linearGradient id="paint2_linear_586_81" x1="-9" y1="50.5" x2="309" y2="50.5" gradientUnits="userSpaceOnUse">
<stop stop-color="white"/>
<stop offset="1" stop-color="#EFE9FC"/>
</linearGradient>
<linearGradient id="paint3_linear_586_81" x1="-9" y1="50.5" x2="309" y2="50.5" gradientUnits="userSpaceOnUse">
<stop stop-color="white"/>
<stop offset="1" stop-color="#EFE9FC"/>
</linearGradient>
<linearGradient id="paint4_linear_586_81" x1="-9" y1="50.5" x2="309" y2="50.5" gradientUnits="userSpaceOnUse">
<stop stop-color="white"/>
<stop offset="1" stop-color="#EFE9FC"/>
</linearGradient>
</defs>
</svg>
