<?xml version="1.0" encoding="UTF-8"?>
<svg id="Layer_2" data-name="Layer 2" xmlns="http://www.w3.org/2000/svg" viewBox="0 0 215.83 51.82">
  <defs>
    <style>
      .cls-1 {
        fill: #fff;
        stroke-width: 0px;
      }
    </style>
  </defs>
  <g id="Layer_1-2" data-name="Layer 1">
    <g>
      <g>
        <path class="cls-1" d="M83.11,36.95V12.33h6.38v24.62h-6.38Z"/>
        <path class="cls-1" d="M102.16,37.5c-1.5,0-2.87-.16-4.12-.48-1.24-.32-2.31-.86-3.21-1.62-.9-.76-1.59-1.8-2.08-3.1-.49-1.3-.74-2.93-.74-4.87,0-3.03.75-5.42,2.25-7.18s3.75-2.64,6.75-2.64c.37,0,.87.03,1.5.09.63.06,1.29.22,1.97.46.69.25,1.3.68,1.85,1.29l-1.11,1.81v-10.7h5.76v21.33c0,.94-.25,1.75-.74,2.46-.49.7-1.15,1.28-1.97,1.73-.83.46-1.77.81-2.82,1.05s-2.15.37-3.28.37ZM102.42,32.63c.84,0,1.51-.11,2.03-.33s.78-.57.78-1.03v-8.27c-.42-.22-.86-.39-1.33-.52-.47-.12-.91-.18-1.33-.18-1.01,0-1.86.16-2.57.48-.7.32-1.23.87-1.59,1.64-.36.78-.54,1.85-.54,3.23,0,1.06.15,1.96.44,2.69.3.74.78,1.3,1.44,1.7.67.39,1.55.59,2.66.59Z"/>
        <path class="cls-1" d="M122.94,37.5c-1.9,0-3.57-.39-5.02-1.16-1.45-.77-2.58-1.88-3.4-3.32-.81-1.44-1.22-3.14-1.22-5.11,0-3.27.82-5.81,2.45-7.6,1.64-1.8,3.98-2.69,7.03-2.69,2.07,0,3.74.44,5.02,1.33s2.22,2.19,2.82,3.91c.6,1.72.89,3.83.87,6.31h-14.17l-.63-3.62h9.93l-.78,1.85c-.05-1.99-.33-3.39-.83-4.19-.5-.8-1.33-1.2-2.49-1.2-.64,0-1.22.17-1.73.5s-.92.89-1.22,1.66c-.3.77-.44,1.81-.44,3.12,0,1.75.41,3.08,1.24,4s2.16,1.38,4,1.38c.69,0,1.37-.08,2.03-.24.67-.16,1.29-.35,1.86-.57.58-.22,1.08-.41,1.5-.55v4.98c-.89.32-1.88.6-2.97.85s-2.38.37-3.86.37Z"/>
        <path class="cls-1" d="M141.09,37.5c-1.18,0-2.28-.11-3.29-.31-1.01-.21-1.89-.56-2.64-1.05-.75-.49-1.33-1.16-1.75-1.99-.42-.84-.63-1.87-.63-3.1,0-1.13.23-2.12.7-2.97.47-.85,1.19-1.51,2.18-1.99s2.24-.72,3.76-.72c.81,0,1.61.09,2.4.28.79.18,1.49.42,2.12.72.63.3,1.12.62,1.49.96l.18,2.73c-.49-.3-1.06-.52-1.7-.68-.64-.16-1.33-.24-2.07-.24-1.16,0-2,.17-2.53.5-.53.33-.79.86-.79,1.57,0,.44.13.83.39,1.16.26.33.59.6,1,.79.41.2.84.3,1.31.3,1.21,0,2.04-.08,2.51-.24.47-.16.7-.49.7-.98v-6.64c0-1.11-.36-1.91-1.07-2.4-.71-.49-1.71-.74-2.99-.74-1.11,0-2.21.2-3.32.59-1.11.39-1.98.86-2.62,1.4v-5.13c.59-.39,1.57-.76,2.93-1.11,1.37-.34,2.91-.52,4.63-.52.54,0,1.17.04,1.88.13.71.09,1.44.26,2.18.52.74.26,1.42.63,2.05,1.13.63.49,1.13,1.13,1.51,1.9.38.78.57,1.75.57,2.93l-.04,8.78c0,1.03-.35,1.88-1.05,2.53-.7.65-1.73,1.13-3.08,1.44-1.35.31-3,.46-4.95.46Z"/>
        <path class="cls-1" d="M153.79,36.95V12.33h10.7c1.77,0,3.32.22,4.65.66,1.33.44,2.38,1.16,3.16,2.16.78,1,1.16,2.33,1.16,4,0,1.13-.29,2.06-.87,2.79-.58.73-1.26,1.3-2.05,1.73-.79.43-1.53.77-2.21,1.02l-.74-1.4c1.43.05,2.67.33,3.73.83,1.06.5,1.88,1.21,2.47,2.1.59.9.89,1.97.89,3.23,0,1.72-.42,3.14-1.25,4.24-.84,1.11-1.95,1.93-3.34,2.45-1.39.53-2.91.79-4.56.79h-11.74ZM160.18,21.89h4.61c.37,0,.72-.08,1.05-.24s.6-.4.81-.72c.21-.32.31-.73.31-1.22,0-.94-.25-1.59-.76-1.96-.5-.37-1.09-.55-1.75-.55h-4.28v4.69ZM160.18,32.07h4.83c.57,0,1.08-.09,1.55-.28.47-.18.85-.49,1.14-.9.29-.42.44-.97.44-1.66,0-.54-.09-.98-.28-1.33s-.42-.62-.72-.83c-.29-.21-.63-.36-1.01-.44-.38-.09-.79-.13-1.24-.13h-4.72v5.57Z"/>
        <path class="cls-1" d="M185.71,37.5c-3.17,0-5.57-.84-7.18-2.53-1.61-1.68-2.42-4.18-2.42-7.47,0-3.57.81-6.11,2.44-7.62,1.62-1.51,4.01-2.27,7.16-2.27,2.09,0,3.86.34,5.3,1.02s2.53,1.75,3.27,3.21,1.11,3.35,1.11,5.67c0,3.3-.83,5.79-2.49,7.47-1.66,1.69-4.05,2.53-7.18,2.53ZM185.71,32.89c.84,0,1.54-.2,2.12-.61s1.02-1.01,1.33-1.81c.31-.8.46-1.79.46-2.97,0-1.38-.15-2.45-.46-3.21-.31-.76-.75-1.31-1.33-1.64s-1.29-.5-2.12-.5-1.58.17-2.14.5c-.57.33-.98.89-1.25,1.66-.27.78-.41,1.84-.41,3.19,0,1.85.31,3.21.92,4.08.62.87,1.57,1.31,2.88,1.31Z"/>
        <path class="cls-1" d="M206.24,29.56l-4.98,7.38h-6.16l8.53-11.04,2.62,3.65ZM215.5,36.95h-6.9l-13.32-18.71h6.87l13.36,18.71ZM204.54,25.84l5.13-7.6h6.16l-8.67,11.33-2.62-3.73Z"/>
      </g>
      <path class="cls-1" d="M1.48,37.99l14.47,7.27h0s10.46,5.26,10.46,5.26c1.74.87,3.62,1.3,5.51,1.3s3.78-.43,5.52-1.3l10.58-5.32h0l14.35-7.21c2-1,1.96-3.87-.06-4.82l-14.41-6.81V8.46s0,0,0-.01,0,0,0-.01c0-.04-.01-.07-.02-.1,0-.12-.02-.23-.05-.35-.02-.05-.04-.1-.06-.16-.04-.09-.07-.18-.12-.26-.03-.05-.07-.1-.11-.15-.05-.07-.11-.14-.18-.21-.05-.04-.1-.08-.15-.12-.04-.03-.08-.08-.13-.11-.03-.02-.06-.03-.09-.04-.03-.01-.05-.04-.07-.05L32.66.17c-.47-.22-1.01-.22-1.47,0l-14.26,6.73s-.05.03-.07.05c-.03.02-.07.02-.1.04-.05.03-.09.07-.13.11-.05.04-.1.08-.15.12-.07.06-.12.14-.18.21-.04.05-.08.09-.11.14-.05.08-.09.17-.12.26-.02.05-.05.1-.06.16-.03.11-.04.23-.05.35,0,.04-.02.07-.02.1,0,0,0,0,0,.01s0,0,0,.01v17.91l15.98,8.02,15.97-8.02v14.42l-.45.23-10.46,5.26c-1.56.78-3.31,1.19-5.07,1.19s-3.5-.41-5.06-1.19l-10.46-5.26-.45-.22v-14.42l-14.41,6.8c-2.02.95-2.06,3.82-.06,4.82ZM29.66,28.75l-9.73-4.88v-11.69l9.73,4.88v11.69ZM31.93,13.18l-9.29-4.66,9.29-4.39,9.28,4.39-9.28,4.66ZM43.91,23.87l-9.72,4.88v-11.69l9.72-4.88v11.69Z"/>
    </g>
  </g>
</svg>